<svg id="Layer_1" data-name="Layer 1" xmlns="http://www.w3.org/2000/svg" viewBox="0 0 500.39 50.4"><defs><style>.cls-1{fill:#231f20;}</style></defs><title>logo</title><path class="cls-1" d="M39.89,30.28a19,19,0,0,1-1.73,8.46,15.08,15.08,0,0,1-4.72,5.65,20.38,20.38,0,0,1-7,3.17,35.16,35.16,0,0,1-8.6,1V60H2.52V12H17.86a34.67,34.67,0,0,1,8.6,1,20.18,20.18,0,0,1,7,3.16,15,15,0,0,1,4.72,5.66A18.9,18.9,0,0,1,39.89,30.28Zm-22,5.32h.64c2,0,3.47-.46,4.36-1.4a5.46,5.46,0,0,0,1.33-3.92,5.49,5.49,0,0,0-1.33-3.93C22,25.42,20.52,25,18.5,25h-.64Z" transform="translate(-2.52 -10.84)"/><path class="cls-1" d="M43.49,12h16V47.41H72.72V60H43.49Z" transform="translate(-2.52 -10.84)"/><path class="cls-1" d="M75.24,12h28.29v12.6h-13v5.33h12.75V41.87H90.57v5.54H104V60H75.24Z" transform="translate(-2.52 -10.84)"/><path class="cls-1" d="M118.08,35.17,105.33,12h16.78l4.32,7.85L130.75,12H147.6L134.85,35.17,148.53,60H131.76l-5.33-9.57L121.17,60H104.4Z" transform="translate(-2.52 -10.84)"/><path class="cls-1" d="M178.27,12h11.52L208,60H192.88l-1.58-4.32H176.76L175.17,60H160.05Zm9,33.12L184,36.68l-3.24,8.43Z" transform="translate(-2.52 -10.84)"/><path class="cls-1" d="M228.74,61.24a27.32,27.32,0,0,1-8.21-1.16,16.84,16.84,0,0,1-6.26-3.45,15.22,15.22,0,0,1-4-5.83,22.51,22.51,0,0,1-1.4-8.28V12h15.34V41.87a6.11,6.11,0,0,0,1,3.85,5.24,5.24,0,0,0,7,0,6.11,6.11,0,0,0,1.05-3.85V12h15.41V42.52a22.29,22.29,0,0,1-1.41,8.28,15,15,0,0,1-4,5.83,17.18,17.18,0,0,1-6.3,3.45A27.28,27.28,0,0,1,228.74,61.24Z" transform="translate(-2.52 -10.84)"/><path class="cls-1" d="M259.84,24.59H251V12h33.55v12.6h-8.86V60H259.84Z" transform="translate(-2.52 -10.84)"/><path class="cls-1" d="M286,36a24.59,24.59,0,0,1,2-9.8,25.2,25.2,0,0,1,13.43-13.42,25.19,25.19,0,0,1,19.58,0A25.2,25.2,0,0,1,334.4,26.24a25.22,25.22,0,0,1,0,19.59A25.18,25.18,0,0,1,321,59.26a25.19,25.19,0,0,1-19.58,0A25.18,25.18,0,0,1,288,45.83,24.54,24.54,0,0,1,286,36Zm15.12,0a9.74,9.74,0,0,0,.79,3.92,10.26,10.26,0,0,0,2.16,3.2,9.93,9.93,0,0,0,3.2,2.16,10,10,0,0,0,7.85,0,10,10,0,0,0,3.21-2.16,10.26,10.26,0,0,0,2.16-3.2,10.15,10.15,0,0,0,0-7.85,10.11,10.11,0,0,0-5.37-5.36,10.15,10.15,0,0,0-7.85,0,10.13,10.13,0,0,0-5.36,5.36A9.79,9.79,0,0,0,301.1,36Z" transform="translate(-2.52 -10.84)"/><path class="cls-1" d="M339,45.11a24.6,24.6,0,0,0,3.31.79,27.56,27.56,0,0,0,3.28.58,32.56,32.56,0,0,0,3.71.21c2.21,0,3.31-.81,3.31-2.45a2.73,2.73,0,0,0-1-1.9,29.4,29.4,0,0,0-2.55-2.16c-1-.8-2.14-1.67-3.32-2.63a24.64,24.64,0,0,1-3.31-3.31A17.38,17.38,0,0,1,339.91,30a13.28,13.28,0,0,1-1-5.36,13.94,13.94,0,0,1,1.22-6,12.22,12.22,0,0,1,3.39-4.32,15.24,15.24,0,0,1,5.07-2.62,21,21,0,0,1,6.23-.9,33.56,33.56,0,0,1,3.46.18l3.09.32,3.1.43V25.24l-1.3-.15L361.87,25a14.77,14.77,0,0,0-1.52-.07l-1.08,0a7.61,7.61,0,0,0-1.22.18,2.61,2.61,0,0,0-1,.51,1.22,1.22,0,0,0-.43,1c0,.39.32.87,1,1.44s1.44,1.25,2.38,2,2,1.66,3.09,2.66a21.53,21.53,0,0,1,3.1,3.46,20.23,20.23,0,0,1,2.38,4.39,14.88,14.88,0,0,1,1,5.47,17.23,17.23,0,0,1-1,5.94,12.68,12.68,0,0,1-3.13,4.83,15,15,0,0,1-5.44,3.24,23.32,23.32,0,0,1-7.85,1.19A46.89,46.89,0,0,1,347,61c-1.56-.17-2.94-.37-4.14-.61a36.34,36.34,0,0,1-3.82-.86Z" transform="translate(-2.52 -10.84)"/><path class="cls-1" d="M371.66,36a26,26,0,0,1,2-10.41,24.23,24.23,0,0,1,5.48-7.95,23.84,23.84,0,0,1,8.06-5.08A27.07,27.07,0,0,1,397,10.84a30.49,30.49,0,0,1,7.31.79,35,35,0,0,1,5.51,1.8A26.42,26.42,0,0,1,414.43,16l-7.56,13.32a25.57,25.57,0,0,0-2.52-1.66,25.15,25.15,0,0,0-2.92-1.11,12.65,12.65,0,0,0-3.85-.54,10.42,10.42,0,0,0-4.11.79,10.58,10.58,0,0,0-3.27,2.16,9.89,9.89,0,0,0-2.2,3.2,9.79,9.79,0,0,0-.79,3.93A9.44,9.44,0,0,0,388,40a10.08,10.08,0,0,0,2.27,3.2,10.41,10.41,0,0,0,3.38,2.16,11.13,11.13,0,0,0,4.25.8,13.57,13.57,0,0,0,4.1-.58,15,15,0,0,0,3-1.3,10.86,10.86,0,0,0,2.52-1.87l7.56,13.32a21.67,21.67,0,0,1-4.61,2.81A39.18,39.18,0,0,1,405,60.37a30.91,30.91,0,0,1-17.79-1A24.4,24.4,0,0,1,379,54.25a23.54,23.54,0,0,1-5.4-8A26.45,26.45,0,0,1,371.66,36Z" transform="translate(-2.52 -10.84)"/><path class="cls-1" d="M431.2,12h11.52l18.22,48H445.82l-1.59-4.32H429.69L428.11,60H413Zm9,33.12L437,36.68l-3.24,8.43Z" transform="translate(-2.52 -10.84)"/><path class="cls-1" d="M462,12h12.6l13.25,18.5V12h15V60H490.24L477.07,41.58V60H462Z" transform="translate(-2.52 -10.84)"/></svg>