<svg id="Layer_1" data-name="Layer 1" xmlns="http://www.w3.org/2000/svg" viewBox="0 0 412.46 60.03"><defs><style>.cls-1{fill:#231f20;}</style></defs><title>logo</title><path class="cls-1" d="M11.07,30.73H0V15H41.94V30.73H30.87V75H11.07Z" transform="translate(0 -14.98)"/><path class="cls-1" d="M45.09,15h20.7a35.94,35.94,0,0,1,10.66,1.53A25,25,0,0,1,85,21a20.62,20.62,0,0,1,5.62,7.34,23.58,23.58,0,0,1,2,10A20.55,20.55,0,0,1,91.35,46a23,23,0,0,1-2.79,5.22,19.19,19.19,0,0,1-4,4L95.76,75H73.26l-9-15.21V75H45.09ZM64.26,44.5h1A10.43,10.43,0,0,0,71.05,43q2.39-1.52,2.39-5.13t-2.39-5.13a10.6,10.6,0,0,0-5.8-1.53h-1Z" transform="translate(0 -14.98)"/><path class="cls-1" d="M115.38,15h14.4l22.77,60h-18.9l-2-5.4H113.49l-2,5.4H92.61Zm11.25,41.4-4-10.53-4,10.53Z" transform="translate(0 -14.98)"/><path class="cls-1" d="M153.9,15h19.44V28.84L184.68,15h23.49L187,42.43,209.25,75H186.12L173.34,56.47V75H153.9Z" transform="translate(0 -14.98)"/><path class="cls-1" d="M219,30.73H207.9V15h41.94V30.73H238.77V75H219Z" transform="translate(0 -14.98)"/><path class="cls-1" d="M270.81,15h14.4L308,75h-18.9l-2-5.4H268.92l-2,5.4H248Zm11.25,41.4L278,45.85,274,56.38Z" transform="translate(0 -14.98)"/><path class="cls-1" d="M309.33,15H330a36,36,0,0,1,10.67,1.53,25,25,0,0,1,8.5,4.5,20.65,20.65,0,0,1,5.63,7.34,23.58,23.58,0,0,1,2,10A20.55,20.55,0,0,1,355.58,46a23,23,0,0,1-2.79,5.22,19.39,19.39,0,0,1-4,4L360,75H337.5l-9-15.21V75H309.33ZM328.5,44.5h1A10.46,10.46,0,0,0,335.29,43q2.38-1.52,2.38-5.13t-2.38-5.13a10.63,10.63,0,0,0-5.81-1.53h-1Z" transform="translate(0 -14.98)"/><path class="cls-1" d="M361.79,15h20.7a36,36,0,0,1,10.67,1.53,25,25,0,0,1,8.5,4.5,20.65,20.65,0,0,1,5.63,7.34,23.58,23.58,0,0,1,2,10A20.55,20.55,0,0,1,408.05,46a23,23,0,0,1-2.79,5.22,19.19,19.19,0,0,1-4.05,4L412.46,75H390L381,59.8V75H361.79ZM381,44.5h1A10.46,10.46,0,0,0,387.76,43q2.39-1.52,2.38-5.13t-2.38-5.13A10.63,10.63,0,0,0,382,31.18h-1Z" transform="translate(0 -14.98)"/></svg>